<mxfile host="app.diagrams.net" agent="Mozilla/5.0 (Windows NT 10.0; Win64; x64) AppleWebKit/537.36 (KHTML, like Gecko) Chrome/130.0.0.0 Safari/537.36" version="24.8.4">
  <diagram name="Page-1" id="BTV8Fuy5DrhqN2SJM399">
    <mxGraphModel dx="2266" dy="818" grid="1" gridSize="10" guides="1" tooltips="1" connect="1" arrows="1" fold="1" page="1" pageScale="1" pageWidth="1400" pageHeight="850" math="0" shadow="0">
      <root>
        <mxCell id="0" />
        <mxCell id="1" parent="0" />
        <mxCell id="9CJE8KTYiSAyDOI42OE2-19" value="" style="endArrow=none;html=1;rounded=0;entryX=0;entryY=0.5;entryDx=0;entryDy=0;exitX=1;exitY=0.5;exitDx=0;exitDy=0;" edge="1" parent="1" source="6bQv6QJurrnaL64MEYEU-4" target="9CJE8KTYiSAyDOI42OE2-18">
          <mxGeometry width="50" height="50" relative="1" as="geometry">
            <mxPoint x="1010" y="365" as="sourcePoint" />
            <mxPoint x="1220" y="473" as="targetPoint" />
          </mxGeometry>
        </mxCell>
        <mxCell id="6bQv6QJurrnaL64MEYEU-66" value="" style="endArrow=none;html=1;rounded=0;entryX=0;entryY=0.5;entryDx=0;entryDy=0;exitX=1;exitY=0.5;exitDx=0;exitDy=0;" parent="1" source="6bQv6QJurrnaL64MEYEU-4" target="6bQv6QJurrnaL64MEYEU-26" edge="1">
          <mxGeometry width="50" height="50" relative="1" as="geometry">
            <mxPoint x="780" y="375" as="sourcePoint" />
            <mxPoint x="830" y="325" as="targetPoint" />
          </mxGeometry>
        </mxCell>
        <mxCell id="6bQv6QJurrnaL64MEYEU-67" value="" style="endArrow=none;html=1;rounded=0;entryX=0;entryY=0.5;entryDx=0;entryDy=0;exitX=1;exitY=0.5;exitDx=0;exitDy=0;" parent="1" source="6bQv6QJurrnaL64MEYEU-4" target="6bQv6QJurrnaL64MEYEU-27" edge="1">
          <mxGeometry width="50" height="50" relative="1" as="geometry">
            <mxPoint x="790" y="385" as="sourcePoint" />
            <mxPoint x="840" y="335" as="targetPoint" />
          </mxGeometry>
        </mxCell>
        <mxCell id="6bQv6QJurrnaL64MEYEU-68" value="" style="endArrow=none;html=1;rounded=0;entryX=0;entryY=0.5;entryDx=0;entryDy=0;exitX=1;exitY=0.5;exitDx=0;exitDy=0;" parent="1" source="6bQv6QJurrnaL64MEYEU-4" target="6bQv6QJurrnaL64MEYEU-28" edge="1">
          <mxGeometry width="50" height="50" relative="1" as="geometry">
            <mxPoint x="800" y="395" as="sourcePoint" />
            <mxPoint x="850" y="345" as="targetPoint" />
          </mxGeometry>
        </mxCell>
        <mxCell id="_VrucNN7PK-HNZGv7wOJ-14" value="" style="endArrow=none;html=1;rounded=0;entryX=0;entryY=0.5;entryDx=0;entryDy=0;exitX=1;exitY=0.5;exitDx=0;exitDy=0;" parent="1" source="6bQv6QJurrnaL64MEYEU-4" target="6bQv6QJurrnaL64MEYEU-25" edge="1">
          <mxGeometry width="50" height="50" relative="1" as="geometry">
            <mxPoint x="1090" y="605" as="sourcePoint" />
            <mxPoint x="1140" y="555" as="targetPoint" />
          </mxGeometry>
        </mxCell>
        <mxCell id="_VrucNN7PK-HNZGv7wOJ-15" value="" style="endArrow=none;html=1;rounded=0;entryX=0;entryY=0.5;entryDx=0;entryDy=0;exitX=1;exitY=0.5;exitDx=0;exitDy=0;" parent="1" source="6bQv6QJurrnaL64MEYEU-4" target="6bQv6QJurrnaL64MEYEU-24" edge="1">
          <mxGeometry width="50" height="50" relative="1" as="geometry">
            <mxPoint x="1090" y="605" as="sourcePoint" />
            <mxPoint x="1140" y="555" as="targetPoint" />
          </mxGeometry>
        </mxCell>
        <mxCell id="6bQv6QJurrnaL64MEYEU-1" value="User" style="rounded=0;whiteSpace=wrap;html=1;" parent="1" vertex="1">
          <mxGeometry x="530" y="325" width="120" height="60" as="geometry" />
        </mxCell>
        <mxCell id="6bQv6QJurrnaL64MEYEU-4" value="Workout" style="rounded=0;whiteSpace=wrap;html=1;" parent="1" vertex="1">
          <mxGeometry x="880" y="325" width="120" height="60" as="geometry" />
        </mxCell>
        <mxCell id="6bQv6QJurrnaL64MEYEU-5" value="ID" style="ellipse;whiteSpace=wrap;html=1;aspect=fixed;fontSize=10;fontStyle=4" parent="1" vertex="1">
          <mxGeometry x="490" y="210" width="50" height="50" as="geometry" />
        </mxCell>
        <mxCell id="6bQv6QJurrnaL64MEYEU-7" value="Height" style="ellipse;whiteSpace=wrap;html=1;aspect=fixed;fontSize=10;fontStyle=0" parent="1" vertex="1">
          <mxGeometry x="30" y="267.5" width="50" height="50" as="geometry" />
        </mxCell>
        <mxCell id="6bQv6QJurrnaL64MEYEU-8" value="Date of Birth" style="ellipse;whiteSpace=wrap;html=1;aspect=fixed;fontSize=10;fontStyle=0" parent="1" vertex="1">
          <mxGeometry x="30" y="147.5" width="50" height="50" as="geometry" />
        </mxCell>
        <mxCell id="6bQv6QJurrnaL64MEYEU-10" value="Last Name" style="ellipse;whiteSpace=wrap;html=1;aspect=fixed;fontSize=10;fontStyle=0" parent="1" vertex="1">
          <mxGeometry x="670" y="210" width="50" height="50" as="geometry" />
        </mxCell>
        <mxCell id="6bQv6QJurrnaL64MEYEU-11" value="First Name" style="ellipse;whiteSpace=wrap;html=1;aspect=fixed;fontSize=10;fontStyle=0" parent="1" vertex="1">
          <mxGeometry x="610" y="210" width="50" height="50" as="geometry" />
        </mxCell>
        <mxCell id="6bQv6QJurrnaL64MEYEU-13" value="Email" style="ellipse;whiteSpace=wrap;html=1;aspect=fixed;fontSize=10;fontStyle=0" parent="1" vertex="1">
          <mxGeometry x="550" y="210" width="50" height="50" as="geometry" />
        </mxCell>
        <mxCell id="6bQv6QJurrnaL64MEYEU-16" value="Other Information" style="ellipse;whiteSpace=wrap;html=1;aspect=fixed;fontSize=9;fontStyle=0" parent="1" vertex="1">
          <mxGeometry x="30" y="620" width="50" height="50" as="geometry" />
        </mxCell>
        <mxCell id="6bQv6QJurrnaL64MEYEU-17" value="Injuries" style="ellipse;whiteSpace=wrap;html=1;aspect=fixed;fontSize=10;fontStyle=0" parent="1" vertex="1">
          <mxGeometry x="30" y="327.5" width="50" height="50" as="geometry" />
        </mxCell>
        <mxCell id="6bQv6QJurrnaL64MEYEU-18" value="&lt;font style=&quot;font-size: 10px;&quot;&gt;Gender&lt;/font&gt;" style="ellipse;whiteSpace=wrap;html=1;aspect=fixed;fontSize=9;fontStyle=0" parent="1" vertex="1">
          <mxGeometry x="30" y="387.5" width="50" height="50" as="geometry" />
        </mxCell>
        <mxCell id="6bQv6QJurrnaL64MEYEU-19" value="Fitness Goal" style="ellipse;whiteSpace=wrap;html=1;aspect=fixed;fontSize=10;fontStyle=0" parent="1" vertex="1">
          <mxGeometry x="30" y="447.5" width="50" height="50" as="geometry" />
        </mxCell>
        <mxCell id="6bQv6QJurrnaL64MEYEU-20" value="Favorite Workout Type" style="ellipse;whiteSpace=wrap;html=1;aspect=fixed;fontSize=9;fontStyle=0" parent="1" vertex="1">
          <mxGeometry x="30" y="507.5" width="50" height="50" as="geometry" />
        </mxCell>
        <mxCell id="6bQv6QJurrnaL64MEYEU-21" value="Weight" style="ellipse;whiteSpace=wrap;html=1;aspect=fixed;fontSize=10;fontStyle=0" parent="1" vertex="1">
          <mxGeometry x="30" y="207.5" width="50" height="50" as="geometry" />
        </mxCell>
        <mxCell id="6bQv6QJurrnaL64MEYEU-22" value="Date Created" style="ellipse;whiteSpace=wrap;html=1;aspect=fixed;fontSize=10;fontStyle=0" parent="1" vertex="1">
          <mxGeometry x="1120" y="180" width="50" height="50" as="geometry" />
        </mxCell>
        <mxCell id="6bQv6QJurrnaL64MEYEU-24" value="Feedback" style="ellipse;whiteSpace=wrap;html=1;aspect=fixed;fontSize=10;fontStyle=0" parent="1" vertex="1">
          <mxGeometry x="1210" y="437.5" width="50" height="50" as="geometry" />
        </mxCell>
        <mxCell id="6bQv6QJurrnaL64MEYEU-25" value="Workout Rating" style="ellipse;whiteSpace=wrap;html=1;aspect=fixed;fontSize=10;fontStyle=0" parent="1" vertex="1">
          <mxGeometry x="1210" y="377.5" width="50" height="50" as="geometry" />
        </mxCell>
        <mxCell id="6bQv6QJurrnaL64MEYEU-26" value="&lt;font style=&quot;font-size: 9px;&quot;&gt;LLM Suggested Workout&lt;/font&gt;" style="ellipse;whiteSpace=wrap;html=1;aspect=fixed;fontSize=10;fontStyle=0" parent="1" vertex="1">
          <mxGeometry x="1210" y="317.5" width="50" height="50" as="geometry" />
        </mxCell>
        <mxCell id="6bQv6QJurrnaL64MEYEU-27" value="Suggested Change" style="ellipse;whiteSpace=wrap;html=1;aspect=fixed;fontSize=9;fontStyle=0" parent="1" vertex="1">
          <mxGeometry x="1210" y="257.5" width="50" height="50" as="geometry" />
        </mxCell>
        <mxCell id="6bQv6QJurrnaL64MEYEU-28" value="Other Information" style="ellipse;whiteSpace=wrap;html=1;aspect=fixed;fontSize=9;fontStyle=0" parent="1" vertex="1">
          <mxGeometry x="1210" y="197.5" width="50" height="50" as="geometry" />
        </mxCell>
        <mxCell id="6bQv6QJurrnaL64MEYEU-29" value="Exercise to Avoid" style="ellipse;whiteSpace=wrap;html=1;aspect=fixed;fontSize=10;fontStyle=0" parent="1" vertex="1">
          <mxGeometry x="1120" y="600" width="50" height="50" as="geometry" />
        </mxCell>
        <mxCell id="6bQv6QJurrnaL64MEYEU-30" value="Exercise to Include" style="ellipse;whiteSpace=wrap;html=1;aspect=fixed;fontSize=10;fontStyle=0" parent="1" vertex="1">
          <mxGeometry x="1120" y="540" width="50" height="50" as="geometry" />
        </mxCell>
        <mxCell id="6bQv6QJurrnaL64MEYEU-31" value="Target Area" style="ellipse;whiteSpace=wrap;html=1;aspect=fixed;fontSize=10;fontStyle=0" parent="1" vertex="1">
          <mxGeometry x="1120" y="420" width="50" height="50" as="geometry" />
        </mxCell>
        <mxCell id="6bQv6QJurrnaL64MEYEU-32" value="Workout Type" style="ellipse;whiteSpace=wrap;html=1;aspect=fixed;fontSize=10;fontStyle=0" parent="1" vertex="1">
          <mxGeometry x="1120" y="360" width="50" height="50" as="geometry" />
        </mxCell>
        <mxCell id="6bQv6QJurrnaL64MEYEU-33" value="Difficulty" style="ellipse;whiteSpace=wrap;html=1;aspect=fixed;fontSize=10;fontStyle=0" parent="1" vertex="1">
          <mxGeometry x="1120" y="300" width="50" height="50" as="geometry" />
        </mxCell>
        <mxCell id="6bQv6QJurrnaL64MEYEU-34" value="Length" style="ellipse;whiteSpace=wrap;html=1;aspect=fixed;fontSize=10;fontStyle=0" parent="1" vertex="1">
          <mxGeometry x="1120" y="240" width="50" height="50" as="geometry" />
        </mxCell>
        <mxCell id="6bQv6QJurrnaL64MEYEU-35" value="ID" style="ellipse;whiteSpace=wrap;html=1;aspect=fixed;fontSize=10;fontStyle=4" parent="1" vertex="1">
          <mxGeometry x="1120" y="60" width="50" height="50" as="geometry" />
        </mxCell>
        <mxCell id="6bQv6QJurrnaL64MEYEU-38" value="Creates/ Modifies" style="rhombus;whiteSpace=wrap;html=1;" parent="1" vertex="1">
          <mxGeometry x="725" y="315" width="80" height="80" as="geometry" />
        </mxCell>
        <mxCell id="6bQv6QJurrnaL64MEYEU-44" value="" style="endArrow=none;html=1;rounded=0;entryX=0;entryY=0.5;entryDx=0;entryDy=0;exitX=1;exitY=0.5;exitDx=0;exitDy=0;" parent="1" source="6bQv6QJurrnaL64MEYEU-1" target="6bQv6QJurrnaL64MEYEU-38" edge="1">
          <mxGeometry width="50" height="50" relative="1" as="geometry">
            <mxPoint x="870" y="380" as="sourcePoint" />
            <mxPoint x="920" y="330" as="targetPoint" />
          </mxGeometry>
        </mxCell>
        <mxCell id="6bQv6QJurrnaL64MEYEU-45" value="" style="endArrow=none;html=1;rounded=0;entryX=1;entryY=0.5;entryDx=0;entryDy=0;exitX=0;exitY=0.5;exitDx=0;exitDy=0;" parent="1" source="6bQv6QJurrnaL64MEYEU-4" target="6bQv6QJurrnaL64MEYEU-38" edge="1">
          <mxGeometry width="50" height="50" relative="1" as="geometry">
            <mxPoint x="870" y="380" as="sourcePoint" />
            <mxPoint x="920" y="330" as="targetPoint" />
          </mxGeometry>
        </mxCell>
        <mxCell id="6bQv6QJurrnaL64MEYEU-48" value="" style="endArrow=none;html=1;rounded=0;entryX=0;entryY=0.5;entryDx=0;entryDy=0;exitX=1;exitY=0.5;exitDx=0;exitDy=0;" parent="1" source="6bQv6QJurrnaL64MEYEU-8" target="_VrucNN7PK-HNZGv7wOJ-1" edge="1">
          <mxGeometry width="50" height="50" relative="1" as="geometry">
            <mxPoint x="290" y="135" as="sourcePoint" />
            <mxPoint x="270" y="190" as="targetPoint" />
          </mxGeometry>
        </mxCell>
        <mxCell id="6bQv6QJurrnaL64MEYEU-49" value="" style="endArrow=none;html=1;rounded=0;exitX=1;exitY=0.5;exitDx=0;exitDy=0;entryX=0;entryY=0.5;entryDx=0;entryDy=0;" parent="1" source="6bQv6QJurrnaL64MEYEU-21" target="_VrucNN7PK-HNZGv7wOJ-1" edge="1">
          <mxGeometry width="50" height="50" relative="1" as="geometry">
            <mxPoint x="40" y="525" as="sourcePoint" />
            <mxPoint x="270" y="185" as="targetPoint" />
          </mxGeometry>
        </mxCell>
        <mxCell id="6bQv6QJurrnaL64MEYEU-50" value="" style="endArrow=none;html=1;rounded=0;exitX=1;exitY=0.5;exitDx=0;exitDy=0;entryX=0;entryY=0.5;entryDx=0;entryDy=0;" parent="1" source="6bQv6QJurrnaL64MEYEU-7" target="_VrucNN7PK-HNZGv7wOJ-1" edge="1">
          <mxGeometry width="50" height="50" relative="1" as="geometry">
            <mxPoint x="50" y="535" as="sourcePoint" />
            <mxPoint x="270" y="185" as="targetPoint" />
          </mxGeometry>
        </mxCell>
        <mxCell id="6bQv6QJurrnaL64MEYEU-51" value="" style="endArrow=none;html=1;rounded=0;entryX=0;entryY=0.5;entryDx=0;entryDy=0;exitX=1;exitY=0.5;exitDx=0;exitDy=0;" parent="1" source="6bQv6QJurrnaL64MEYEU-17" target="_VrucNN7PK-HNZGv7wOJ-1" edge="1">
          <mxGeometry width="50" height="50" relative="1" as="geometry">
            <mxPoint x="60" y="545" as="sourcePoint" />
            <mxPoint x="270" y="190" as="targetPoint" />
          </mxGeometry>
        </mxCell>
        <mxCell id="6bQv6QJurrnaL64MEYEU-52" value="" style="endArrow=none;html=1;rounded=0;entryX=0;entryY=0.5;entryDx=0;entryDy=0;exitX=1;exitY=0.5;exitDx=0;exitDy=0;" parent="1" source="6bQv6QJurrnaL64MEYEU-18" target="_VrucNN7PK-HNZGv7wOJ-1" edge="1">
          <mxGeometry width="50" height="50" relative="1" as="geometry">
            <mxPoint x="70" y="555" as="sourcePoint" />
            <mxPoint x="270" y="190" as="targetPoint" />
          </mxGeometry>
        </mxCell>
        <mxCell id="6bQv6QJurrnaL64MEYEU-53" value="" style="endArrow=none;html=1;rounded=0;entryX=0;entryY=0.5;entryDx=0;entryDy=0;exitX=1;exitY=0.5;exitDx=0;exitDy=0;" parent="1" source="6bQv6QJurrnaL64MEYEU-19" target="_VrucNN7PK-HNZGv7wOJ-1" edge="1">
          <mxGeometry width="50" height="50" relative="1" as="geometry">
            <mxPoint x="80" y="565" as="sourcePoint" />
            <mxPoint x="270" y="190" as="targetPoint" />
          </mxGeometry>
        </mxCell>
        <mxCell id="6bQv6QJurrnaL64MEYEU-54" value="" style="endArrow=none;html=1;rounded=0;entryX=0;entryY=0.5;entryDx=0;entryDy=0;exitX=1;exitY=0.5;exitDx=0;exitDy=0;" parent="1" source="6bQv6QJurrnaL64MEYEU-20" target="_VrucNN7PK-HNZGv7wOJ-1" edge="1">
          <mxGeometry width="50" height="50" relative="1" as="geometry">
            <mxPoint x="90" y="575" as="sourcePoint" />
            <mxPoint x="270" y="190" as="targetPoint" />
          </mxGeometry>
        </mxCell>
        <mxCell id="6bQv6QJurrnaL64MEYEU-55" value="" style="endArrow=none;html=1;rounded=0;entryX=0;entryY=0.5;entryDx=0;entryDy=0;exitX=1;exitY=0.5;exitDx=0;exitDy=0;" parent="1" source="6bQv6QJurrnaL64MEYEU-16" target="_VrucNN7PK-HNZGv7wOJ-1" edge="1">
          <mxGeometry width="50" height="50" relative="1" as="geometry">
            <mxPoint x="100" y="585" as="sourcePoint" />
            <mxPoint x="270" y="190" as="targetPoint" />
          </mxGeometry>
        </mxCell>
        <mxCell id="6bQv6QJurrnaL64MEYEU-56" value="" style="endArrow=none;html=1;rounded=0;entryX=0.5;entryY=1;entryDx=0;entryDy=0;exitX=0.5;exitY=0;exitDx=0;exitDy=0;" parent="1" source="6bQv6QJurrnaL64MEYEU-1" target="6bQv6QJurrnaL64MEYEU-5" edge="1">
          <mxGeometry width="50" height="50" relative="1" as="geometry">
            <mxPoint x="30" y="600" as="sourcePoint" />
            <mxPoint x="80" y="550" as="targetPoint" />
          </mxGeometry>
        </mxCell>
        <mxCell id="6bQv6QJurrnaL64MEYEU-57" value="" style="endArrow=none;html=1;rounded=0;entryX=0.5;entryY=1;entryDx=0;entryDy=0;exitX=0.5;exitY=0;exitDx=0;exitDy=0;" parent="1" source="6bQv6QJurrnaL64MEYEU-1" target="6bQv6QJurrnaL64MEYEU-13" edge="1">
          <mxGeometry width="50" height="50" relative="1" as="geometry">
            <mxPoint x="40" y="610" as="sourcePoint" />
            <mxPoint x="90" y="560" as="targetPoint" />
          </mxGeometry>
        </mxCell>
        <mxCell id="6bQv6QJurrnaL64MEYEU-60" value="" style="endArrow=none;html=1;rounded=0;entryX=0.5;entryY=1;entryDx=0;entryDy=0;exitX=0.5;exitY=0;exitDx=0;exitDy=0;" parent="1" source="6bQv6QJurrnaL64MEYEU-1" target="6bQv6QJurrnaL64MEYEU-11" edge="1">
          <mxGeometry width="50" height="50" relative="1" as="geometry">
            <mxPoint x="70" y="640" as="sourcePoint" />
            <mxPoint x="120" y="590" as="targetPoint" />
          </mxGeometry>
        </mxCell>
        <mxCell id="6bQv6QJurrnaL64MEYEU-61" value="" style="endArrow=none;html=1;rounded=0;entryX=0;entryY=0.5;entryDx=0;entryDy=0;exitX=1;exitY=0.5;exitDx=0;exitDy=0;" parent="1" source="6bQv6QJurrnaL64MEYEU-4" target="6bQv6QJurrnaL64MEYEU-34" edge="1">
          <mxGeometry width="50" height="50" relative="1" as="geometry">
            <mxPoint x="780" y="375" as="sourcePoint" />
            <mxPoint x="830" y="325" as="targetPoint" />
          </mxGeometry>
        </mxCell>
        <mxCell id="6bQv6QJurrnaL64MEYEU-62" value="" style="endArrow=none;html=1;rounded=0;entryX=0;entryY=0.5;entryDx=0;entryDy=0;exitX=1;exitY=0.5;exitDx=0;exitDy=0;" parent="1" source="6bQv6QJurrnaL64MEYEU-4" target="6bQv6QJurrnaL64MEYEU-35" edge="1">
          <mxGeometry width="50" height="50" relative="1" as="geometry">
            <mxPoint x="780" y="375" as="sourcePoint" />
            <mxPoint x="830" y="325" as="targetPoint" />
          </mxGeometry>
        </mxCell>
        <mxCell id="6bQv6QJurrnaL64MEYEU-64" value="" style="endArrow=none;html=1;rounded=0;entryX=0.5;entryY=1;entryDx=0;entryDy=0;exitX=0.5;exitY=0;exitDx=0;exitDy=0;" parent="1" source="6bQv6QJurrnaL64MEYEU-1" target="6bQv6QJurrnaL64MEYEU-10" edge="1">
          <mxGeometry width="50" height="50" relative="1" as="geometry">
            <mxPoint x="720" y="415" as="sourcePoint" />
            <mxPoint x="770" y="365" as="targetPoint" />
          </mxGeometry>
        </mxCell>
        <mxCell id="6bQv6QJurrnaL64MEYEU-69" value="" style="endArrow=none;html=1;rounded=0;entryX=0;entryY=0.5;entryDx=0;entryDy=0;exitX=1;exitY=0.5;exitDx=0;exitDy=0;" parent="1" source="6bQv6QJurrnaL64MEYEU-4" target="6bQv6QJurrnaL64MEYEU-29" edge="1">
          <mxGeometry width="50" height="50" relative="1" as="geometry">
            <mxPoint x="810" y="405" as="sourcePoint" />
            <mxPoint x="860" y="355" as="targetPoint" />
          </mxGeometry>
        </mxCell>
        <mxCell id="6bQv6QJurrnaL64MEYEU-70" value="" style="endArrow=none;html=1;rounded=0;entryX=0;entryY=0.5;entryDx=0;entryDy=0;exitX=1;exitY=0.5;exitDx=0;exitDy=0;" parent="1" source="6bQv6QJurrnaL64MEYEU-4" target="6bQv6QJurrnaL64MEYEU-30" edge="1">
          <mxGeometry width="50" height="50" relative="1" as="geometry">
            <mxPoint x="820" y="415" as="sourcePoint" />
            <mxPoint x="870" y="365" as="targetPoint" />
          </mxGeometry>
        </mxCell>
        <mxCell id="6bQv6QJurrnaL64MEYEU-71" value="" style="endArrow=none;html=1;rounded=0;entryX=0;entryY=0.5;entryDx=0;entryDy=0;exitX=1;exitY=0.5;exitDx=0;exitDy=0;" parent="1" source="6bQv6QJurrnaL64MEYEU-4" target="6bQv6QJurrnaL64MEYEU-31" edge="1">
          <mxGeometry width="50" height="50" relative="1" as="geometry">
            <mxPoint x="830" y="425" as="sourcePoint" />
            <mxPoint x="880" y="375" as="targetPoint" />
          </mxGeometry>
        </mxCell>
        <mxCell id="6bQv6QJurrnaL64MEYEU-72" value="" style="endArrow=none;html=1;rounded=0;entryX=0;entryY=0.5;entryDx=0;entryDy=0;exitX=1;exitY=0.5;exitDx=0;exitDy=0;" parent="1" source="6bQv6QJurrnaL64MEYEU-4" target="6bQv6QJurrnaL64MEYEU-32" edge="1">
          <mxGeometry width="50" height="50" relative="1" as="geometry">
            <mxPoint x="840" y="435" as="sourcePoint" />
            <mxPoint x="890" y="385" as="targetPoint" />
          </mxGeometry>
        </mxCell>
        <mxCell id="6bQv6QJurrnaL64MEYEU-73" value="" style="endArrow=none;html=1;rounded=0;entryX=0;entryY=0.5;entryDx=0;entryDy=0;exitX=1;exitY=0.5;exitDx=0;exitDy=0;" parent="1" source="6bQv6QJurrnaL64MEYEU-4" target="6bQv6QJurrnaL64MEYEU-33" edge="1">
          <mxGeometry width="50" height="50" relative="1" as="geometry">
            <mxPoint x="850" y="445" as="sourcePoint" />
            <mxPoint x="900" y="395" as="targetPoint" />
          </mxGeometry>
        </mxCell>
        <mxCell id="_VrucNN7PK-HNZGv7wOJ-1" value="Health Profile" style="rounded=0;whiteSpace=wrap;html=1;" parent="1" vertex="1">
          <mxGeometry x="150" y="325" width="120" height="60" as="geometry" />
        </mxCell>
        <mxCell id="_VrucNN7PK-HNZGv7wOJ-2" value="Creates/ Modifies" style="rhombus;whiteSpace=wrap;html=1;" parent="1" vertex="1">
          <mxGeometry x="360" y="315" width="80" height="80" as="geometry" />
        </mxCell>
        <mxCell id="_VrucNN7PK-HNZGv7wOJ-3" value="" style="endArrow=none;html=1;rounded=0;entryX=0;entryY=0.5;entryDx=0;entryDy=0;" parent="1" source="_VrucNN7PK-HNZGv7wOJ-2" target="6bQv6QJurrnaL64MEYEU-1" edge="1">
          <mxGeometry width="50" height="50" relative="1" as="geometry">
            <mxPoint x="470" y="460" as="sourcePoint" />
            <mxPoint x="520" y="410" as="targetPoint" />
          </mxGeometry>
        </mxCell>
        <mxCell id="_VrucNN7PK-HNZGv7wOJ-4" value="" style="endArrow=none;html=1;rounded=0;entryX=0;entryY=0.5;entryDx=0;entryDy=0;exitX=1;exitY=0.5;exitDx=0;exitDy=0;" parent="1" source="_VrucNN7PK-HNZGv7wOJ-1" target="_VrucNN7PK-HNZGv7wOJ-2" edge="1">
          <mxGeometry width="50" height="50" relative="1" as="geometry">
            <mxPoint x="360" y="500" as="sourcePoint" />
            <mxPoint x="410" y="450" as="targetPoint" />
          </mxGeometry>
        </mxCell>
        <mxCell id="_VrucNN7PK-HNZGv7wOJ-5" value="" style="endArrow=none;html=1;rounded=0;exitX=1;exitY=0.5;exitDx=0;exitDy=0;entryX=0;entryY=0.5;entryDx=0;entryDy=0;" parent="1" source="_VrucNN7PK-HNZGv7wOJ-6" target="_VrucNN7PK-HNZGv7wOJ-1" edge="1">
          <mxGeometry width="50" height="50" relative="1" as="geometry">
            <mxPoint x="700" y="535" as="sourcePoint" />
            <mxPoint x="430" y="585" as="targetPoint" />
          </mxGeometry>
        </mxCell>
        <mxCell id="_VrucNN7PK-HNZGv7wOJ-6" value="ID" style="ellipse;whiteSpace=wrap;html=1;aspect=fixed;fontSize=10;fontStyle=4" parent="1" vertex="1">
          <mxGeometry x="30" y="30" width="50" height="50" as="geometry" />
        </mxCell>
        <mxCell id="_VrucNN7PK-HNZGv7wOJ-7" value="User" style="ellipse;whiteSpace=wrap;html=1;aspect=fixed;fontSize=10;fontStyle=0" parent="1" vertex="1">
          <mxGeometry x="1120" y="120" width="50" height="50" as="geometry" />
        </mxCell>
        <mxCell id="_VrucNN7PK-HNZGv7wOJ-8" value="" style="endArrow=none;html=1;rounded=0;entryX=0;entryY=0.5;entryDx=0;entryDy=0;exitX=1;exitY=0.5;exitDx=0;exitDy=0;" parent="1" source="6bQv6QJurrnaL64MEYEU-4" target="_VrucNN7PK-HNZGv7wOJ-7" edge="1">
          <mxGeometry width="50" height="50" relative="1" as="geometry">
            <mxPoint x="1090" y="285" as="sourcePoint" />
            <mxPoint x="1140" y="235" as="targetPoint" />
          </mxGeometry>
        </mxCell>
        <mxCell id="_VrucNN7PK-HNZGv7wOJ-9" value="" style="endArrow=none;html=1;rounded=0;entryX=0;entryY=0.5;entryDx=0;entryDy=0;exitX=1;exitY=0.5;exitDx=0;exitDy=0;" parent="1" source="6bQv6QJurrnaL64MEYEU-4" target="6bQv6QJurrnaL64MEYEU-22" edge="1">
          <mxGeometry width="50" height="50" relative="1" as="geometry">
            <mxPoint x="1090" y="285" as="sourcePoint" />
            <mxPoint x="1140" y="235" as="targetPoint" />
          </mxGeometry>
        </mxCell>
        <mxCell id="_VrucNN7PK-HNZGv7wOJ-10" value="&lt;font style=&quot;font-size: 9px;&quot;&gt;Equipment Access&lt;/font&gt;" style="ellipse;whiteSpace=wrap;html=1;aspect=fixed;fontSize=10;fontStyle=0" parent="1" vertex="1">
          <mxGeometry x="1120" y="480" width="50" height="50" as="geometry" />
        </mxCell>
        <mxCell id="_VrucNN7PK-HNZGv7wOJ-11" value="" style="endArrow=none;html=1;rounded=0;entryX=0;entryY=0.5;entryDx=0;entryDy=0;exitX=1;exitY=0.5;exitDx=0;exitDy=0;" parent="1" source="6bQv6QJurrnaL64MEYEU-4" target="_VrucNN7PK-HNZGv7wOJ-10" edge="1">
          <mxGeometry width="50" height="50" relative="1" as="geometry">
            <mxPoint x="1090" y="385" as="sourcePoint" />
            <mxPoint x="1140" y="335" as="targetPoint" />
          </mxGeometry>
        </mxCell>
        <mxCell id="_VrucNN7PK-HNZGv7wOJ-16" value="1" style="text;html=1;align=center;verticalAlign=middle;whiteSpace=wrap;rounded=0;" parent="1" vertex="1">
          <mxGeometry x="630" y="330" width="60" height="30" as="geometry" />
        </mxCell>
        <mxCell id="_VrucNN7PK-HNZGv7wOJ-17" value="0..*" style="text;html=1;align=center;verticalAlign=middle;whiteSpace=wrap;rounded=0;" parent="1" vertex="1">
          <mxGeometry x="830" y="330" width="60" height="30" as="geometry" />
        </mxCell>
        <mxCell id="_VrucNN7PK-HNZGv7wOJ-18" value="1" style="text;html=1;align=center;verticalAlign=middle;whiteSpace=wrap;rounded=0;" parent="1" vertex="1">
          <mxGeometry x="550" y="380" width="60" height="30" as="geometry" />
        </mxCell>
        <mxCell id="_VrucNN7PK-HNZGv7wOJ-20" value="1" style="text;html=1;align=center;verticalAlign=middle;whiteSpace=wrap;rounded=0;" parent="1" vertex="1">
          <mxGeometry x="250" y="330" width="60" height="30" as="geometry" />
        </mxCell>
        <mxCell id="9CJE8KTYiSAyDOI42OE2-1" value="Recommendation" style="rounded=0;whiteSpace=wrap;html=1;" vertex="1" parent="1">
          <mxGeometry x="530" y="620" width="120" height="60" as="geometry" />
        </mxCell>
        <mxCell id="9CJE8KTYiSAyDOI42OE2-2" value="" style="endArrow=none;html=1;rounded=0;entryX=0.5;entryY=1;entryDx=0;entryDy=0;exitX=0.5;exitY=0;exitDx=0;exitDy=0;" edge="1" parent="1" source="9CJE8KTYiSAyDOI42OE2-3" target="6bQv6QJurrnaL64MEYEU-1">
          <mxGeometry width="50" height="50" relative="1" as="geometry">
            <mxPoint x="590" y="460" as="sourcePoint" />
            <mxPoint x="720" y="400" as="targetPoint" />
          </mxGeometry>
        </mxCell>
        <mxCell id="9CJE8KTYiSAyDOI42OE2-3" value="Gets" style="rhombus;whiteSpace=wrap;html=1;" vertex="1" parent="1">
          <mxGeometry x="550" y="460" width="80" height="80" as="geometry" />
        </mxCell>
        <mxCell id="9CJE8KTYiSAyDOI42OE2-4" value="" style="endArrow=none;html=1;rounded=0;exitX=0.5;exitY=1;exitDx=0;exitDy=0;entryX=0.5;entryY=0;entryDx=0;entryDy=0;" edge="1" parent="1" source="9CJE8KTYiSAyDOI42OE2-3" target="9CJE8KTYiSAyDOI42OE2-1">
          <mxGeometry width="50" height="50" relative="1" as="geometry">
            <mxPoint x="670" y="450" as="sourcePoint" />
            <mxPoint x="720" y="400" as="targetPoint" />
          </mxGeometry>
        </mxCell>
        <mxCell id="9CJE8KTYiSAyDOI42OE2-7" value="0..*" style="text;html=1;align=center;verticalAlign=middle;whiteSpace=wrap;rounded=0;" vertex="1" parent="1">
          <mxGeometry x="545" y="590" width="60" height="30" as="geometry" />
        </mxCell>
        <mxCell id="9CJE8KTYiSAyDOI42OE2-8" value="ID" style="ellipse;whiteSpace=wrap;html=1;aspect=fixed;fontSize=10;fontStyle=4" vertex="1" parent="1">
          <mxGeometry x="480" y="740" width="50" height="50" as="geometry" />
        </mxCell>
        <mxCell id="9CJE8KTYiSAyDOI42OE2-9" value="&lt;font style=&quot;font-size: 10px; background-color: rgb(250, 250, 250);&quot;&gt;Daily Recommendation&lt;/font&gt;" style="ellipse;whiteSpace=wrap;html=1;aspect=fixed;fontSize=10;fontStyle=0" vertex="1" parent="1">
          <mxGeometry x="680" y="740" width="55" height="55" as="geometry" />
        </mxCell>
        <mxCell id="9CJE8KTYiSAyDOI42OE2-10" value="Date Created" style="ellipse;whiteSpace=wrap;html=1;aspect=fixed;fontSize=10;fontStyle=0" vertex="1" parent="1">
          <mxGeometry x="610" y="740" width="50" height="50" as="geometry" />
        </mxCell>
        <mxCell id="9CJE8KTYiSAyDOI42OE2-11" value="User" style="ellipse;whiteSpace=wrap;html=1;aspect=fixed;fontSize=10;fontStyle=0" vertex="1" parent="1">
          <mxGeometry x="550" y="740" width="50" height="50" as="geometry" />
        </mxCell>
        <mxCell id="9CJE8KTYiSAyDOI42OE2-12" value="User" style="ellipse;whiteSpace=wrap;html=1;aspect=fixed;fontSize=10;fontStyle=0" vertex="1" parent="1">
          <mxGeometry x="30" y="90" width="50" height="50" as="geometry" />
        </mxCell>
        <mxCell id="9CJE8KTYiSAyDOI42OE2-13" value="" style="endArrow=none;html=1;rounded=0;exitX=1;exitY=0.5;exitDx=0;exitDy=0;entryX=0;entryY=0.5;entryDx=0;entryDy=0;" edge="1" parent="1" source="9CJE8KTYiSAyDOI42OE2-12" target="_VrucNN7PK-HNZGv7wOJ-1">
          <mxGeometry width="50" height="50" relative="1" as="geometry">
            <mxPoint x="90" y="65" as="sourcePoint" />
            <mxPoint x="160" y="365" as="targetPoint" />
          </mxGeometry>
        </mxCell>
        <mxCell id="9CJE8KTYiSAyDOI42OE2-14" value="" style="endArrow=none;html=1;rounded=0;exitX=0.5;exitY=1;exitDx=0;exitDy=0;entryX=0.5;entryY=0;entryDx=0;entryDy=0;" edge="1" parent="1" source="9CJE8KTYiSAyDOI42OE2-1" target="9CJE8KTYiSAyDOI42OE2-8">
          <mxGeometry width="50" height="50" relative="1" as="geometry">
            <mxPoint x="670" y="450" as="sourcePoint" />
            <mxPoint x="720" y="400" as="targetPoint" />
          </mxGeometry>
        </mxCell>
        <mxCell id="9CJE8KTYiSAyDOI42OE2-15" value="" style="endArrow=none;html=1;rounded=0;exitX=0.5;exitY=1;exitDx=0;exitDy=0;entryX=0.5;entryY=0;entryDx=0;entryDy=0;" edge="1" parent="1" source="9CJE8KTYiSAyDOI42OE2-1" target="9CJE8KTYiSAyDOI42OE2-11">
          <mxGeometry width="50" height="50" relative="1" as="geometry">
            <mxPoint x="600" y="690" as="sourcePoint" />
            <mxPoint x="515" y="750" as="targetPoint" />
          </mxGeometry>
        </mxCell>
        <mxCell id="9CJE8KTYiSAyDOI42OE2-16" value="" style="endArrow=none;html=1;rounded=0;exitX=0.5;exitY=1;exitDx=0;exitDy=0;entryX=0.5;entryY=0;entryDx=0;entryDy=0;" edge="1" parent="1" source="9CJE8KTYiSAyDOI42OE2-1" target="9CJE8KTYiSAyDOI42OE2-10">
          <mxGeometry width="50" height="50" relative="1" as="geometry">
            <mxPoint x="600" y="690" as="sourcePoint" />
            <mxPoint x="585" y="750" as="targetPoint" />
          </mxGeometry>
        </mxCell>
        <mxCell id="9CJE8KTYiSAyDOI42OE2-17" value="" style="endArrow=none;html=1;rounded=0;exitX=0.5;exitY=1;exitDx=0;exitDy=0;entryX=0.5;entryY=0;entryDx=0;entryDy=0;" edge="1" parent="1" source="9CJE8KTYiSAyDOI42OE2-1" target="9CJE8KTYiSAyDOI42OE2-9">
          <mxGeometry width="50" height="50" relative="1" as="geometry">
            <mxPoint x="600" y="690" as="sourcePoint" />
            <mxPoint x="645" y="750" as="targetPoint" />
          </mxGeometry>
        </mxCell>
        <mxCell id="9CJE8KTYiSAyDOI42OE2-18" value="Actual Length" style="ellipse;whiteSpace=wrap;html=1;aspect=fixed;fontSize=10;fontStyle=0" vertex="1" parent="1">
          <mxGeometry x="1210" y="497.5" width="50" height="50" as="geometry" />
        </mxCell>
        <mxCell id="9CJE8KTYiSAyDOI42OE2-20" value="Workout Experience" style="ellipse;whiteSpace=wrap;html=1;aspect=fixed;fontSize=9;fontStyle=0" vertex="1" parent="1">
          <mxGeometry x="30" y="561.25" width="50" height="50" as="geometry" />
        </mxCell>
        <mxCell id="9CJE8KTYiSAyDOI42OE2-21" value="" style="endArrow=none;html=1;rounded=0;entryX=0;entryY=0.5;entryDx=0;entryDy=0;exitX=1;exitY=0.5;exitDx=0;exitDy=0;" edge="1" parent="1" source="9CJE8KTYiSAyDOI42OE2-20">
          <mxGeometry width="50" height="50" relative="1" as="geometry">
            <mxPoint x="90" y="628.75" as="sourcePoint" />
            <mxPoint x="140" y="398.75" as="targetPoint" />
          </mxGeometry>
        </mxCell>
      </root>
    </mxGraphModel>
  </diagram>
</mxfile>
